<?xml version="1.0" encoding="utf-8" standalone="no"?>
<!DOCTYPE svg PUBLIC "-//W3C//DTD SVG 1.1//EN"
  "http://www.w3.org/Graphics/SVG/1.1/DTD/svg11.dtd">
<svg xmlns:xlink="http://www.w3.org/1999/xlink" width="720pt" height="720pt" viewBox="0 0 720 720" xmlns="http://www.w3.org/2000/svg" version="1.1">
 <metadata>
  <rdf:RDF xmlns:dc="http://purl.org/dc/elements/1.1/" xmlns:cc="http://creativecommons.org/ns#" xmlns:rdf="http://www.w3.org/1999/02/22-rdf-syntax-ns#">
   <cc:Work>
    <dc:type rdf:resource="http://purl.org/dc/dcmitype/StillImage"/>
    <dc:date>2023-06-23T11:11:49.772556</dc:date>
    <dc:format>image/svg+xml</dc:format>
    <dc:creator>
     <cc:Agent>
      <dc:title>Matplotlib v3.7.1, https://matplotlib.org/</dc:title>
     </cc:Agent>
    </dc:creator>
   </cc:Work>
  </rdf:RDF>
 </metadata>
 <defs>
  <style type="text/css">*{stroke-linejoin: round; stroke-linecap: butt}</style>
 </defs>
 <g id="figure_1">
  <g id="patch_1">
   <path d="M 0 720 
L 720 720 
L 720 0 
L 0 0 
z
" style="fill: #ffffff"/>
  </g>
  <g id="axes_1">
   <g id="patch_2">
    <path d="M 90 640.8 
L 648 640.8 
L 648 86.4 
L 90 86.4 
z
" style="fill: #ffffff"/>
   </g>
   <g id="matplotlib.axis_1">
    <g id="xtick_1">
     <g id="line2d_1">
      <defs>
       <path id="maef9b04e1b" d="M 0 0 
L 0 3.5 
" style="stroke: #000000; stroke-width: 0.8"/>
      </defs>
      <g>
       <use xlink:href="#maef9b04e1b" x="115.363636" y="640.8" style="stroke: #000000; stroke-width: 0.8"/>
      </g>
     </g>
     <g id="text_1">
      <!-- 0 -->
      <g transform="translate(111.88473 655.398438) scale(0.1 -0.1)">
       <defs>
        <path id="DejaVuSans-Bold-30" d="M 2944 2338 
Q 2944 3213 2780 3570 
Q 2616 3928 2228 3928 
Q 1841 3928 1675 3570 
Q 1509 3213 1509 2338 
Q 1509 1453 1675 1090 
Q 1841 728 2228 728 
Q 2613 728 2778 1090 
Q 2944 1453 2944 2338 
z
M 4147 2328 
Q 4147 1169 3647 539 
Q 3147 -91 2228 -91 
Q 1306 -91 806 539 
Q 306 1169 306 2328 
Q 306 3491 806 4120 
Q 1306 4750 2228 4750 
Q 3147 4750 3647 4120 
Q 4147 3491 4147 2328 
z
" transform="scale(0.015625)"/>
       </defs>
       <use xlink:href="#DejaVuSans-Bold-30"/>
      </g>
     </g>
    </g>
    <g id="xtick_2">
     <g id="line2d_2">
      <g>
       <use xlink:href="#maef9b04e1b" x="217.021498" y="640.8" style="stroke: #000000; stroke-width: 0.8"/>
      </g>
     </g>
     <g id="text_2">
      <!-- 100 -->
      <g transform="translate(206.584779 655.398438) scale(0.1 -0.1)">
       <defs>
        <path id="DejaVuSans-Bold-31" d="M 750 831 
L 1813 831 
L 1813 3847 
L 722 3622 
L 722 4441 
L 1806 4666 
L 2950 4666 
L 2950 831 
L 4013 831 
L 4013 0 
L 750 0 
L 750 831 
z
" transform="scale(0.015625)"/>
       </defs>
       <use xlink:href="#DejaVuSans-Bold-31"/>
       <use xlink:href="#DejaVuSans-Bold-30" x="69.580078"/>
       <use xlink:href="#DejaVuSans-Bold-30" x="139.160156"/>
      </g>
     </g>
    </g>
    <g id="xtick_3">
     <g id="line2d_3">
      <g>
       <use xlink:href="#maef9b04e1b" x="318.679359" y="640.8" style="stroke: #000000; stroke-width: 0.8"/>
      </g>
     </g>
     <g id="text_3">
      <!-- 200 -->
      <g transform="translate(308.24264 655.398438) scale(0.1 -0.1)">
       <defs>
        <path id="DejaVuSans-Bold-32" d="M 1844 884 
L 3897 884 
L 3897 0 
L 506 0 
L 506 884 
L 2209 2388 
Q 2438 2594 2547 2791 
Q 2656 2988 2656 3200 
Q 2656 3528 2436 3728 
Q 2216 3928 1850 3928 
Q 1569 3928 1234 3808 
Q 900 3688 519 3450 
L 519 4475 
Q 925 4609 1322 4679 
Q 1719 4750 2100 4750 
Q 2938 4750 3402 4381 
Q 3866 4013 3866 3353 
Q 3866 2972 3669 2642 
Q 3472 2313 2841 1759 
L 1844 884 
z
" transform="scale(0.015625)"/>
       </defs>
       <use xlink:href="#DejaVuSans-Bold-32"/>
       <use xlink:href="#DejaVuSans-Bold-30" x="69.580078"/>
       <use xlink:href="#DejaVuSans-Bold-30" x="139.160156"/>
      </g>
     </g>
    </g>
    <g id="xtick_4">
     <g id="line2d_4">
      <g>
       <use xlink:href="#maef9b04e1b" x="420.33722" y="640.8" style="stroke: #000000; stroke-width: 0.8"/>
      </g>
     </g>
     <g id="text_4">
      <!-- 300 -->
      <g transform="translate(409.900501 655.398438) scale(0.1 -0.1)">
       <defs>
        <path id="DejaVuSans-Bold-33" d="M 2981 2516 
Q 3453 2394 3698 2092 
Q 3944 1791 3944 1325 
Q 3944 631 3412 270 
Q 2881 -91 1863 -91 
Q 1503 -91 1142 -33 
Q 781 25 428 141 
L 428 1069 
Q 766 900 1098 814 
Q 1431 728 1753 728 
Q 2231 728 2486 893 
Q 2741 1059 2741 1369 
Q 2741 1688 2480 1852 
Q 2219 2016 1709 2016 
L 1228 2016 
L 1228 2791 
L 1734 2791 
Q 2188 2791 2409 2933 
Q 2631 3075 2631 3366 
Q 2631 3634 2415 3781 
Q 2200 3928 1806 3928 
Q 1516 3928 1219 3862 
Q 922 3797 628 3669 
L 628 4550 
Q 984 4650 1334 4700 
Q 1684 4750 2022 4750 
Q 2931 4750 3382 4451 
Q 3834 4153 3834 3553 
Q 3834 3144 3618 2883 
Q 3403 2622 2981 2516 
z
" transform="scale(0.015625)"/>
       </defs>
       <use xlink:href="#DejaVuSans-Bold-33"/>
       <use xlink:href="#DejaVuSans-Bold-30" x="69.580078"/>
       <use xlink:href="#DejaVuSans-Bold-30" x="139.160156"/>
      </g>
     </g>
    </g>
    <g id="xtick_5">
     <g id="line2d_5">
      <g>
       <use xlink:href="#maef9b04e1b" x="521.995081" y="640.8" style="stroke: #000000; stroke-width: 0.8"/>
      </g>
     </g>
     <g id="text_5">
      <!-- 400 -->
      <g transform="translate(511.558362 655.398438) scale(0.1 -0.1)">
       <defs>
        <path id="DejaVuSans-Bold-34" d="M 2356 3675 
L 1038 1722 
L 2356 1722 
L 2356 3675 
z
M 2156 4666 
L 3494 4666 
L 3494 1722 
L 4159 1722 
L 4159 850 
L 3494 850 
L 3494 0 
L 2356 0 
L 2356 850 
L 288 850 
L 288 1881 
L 2156 4666 
z
" transform="scale(0.015625)"/>
       </defs>
       <use xlink:href="#DejaVuSans-Bold-34"/>
       <use xlink:href="#DejaVuSans-Bold-30" x="69.580078"/>
       <use xlink:href="#DejaVuSans-Bold-30" x="139.160156"/>
      </g>
     </g>
    </g>
    <g id="xtick_6">
     <g id="line2d_6">
      <g>
       <use xlink:href="#maef9b04e1b" x="623.652942" y="640.8" style="stroke: #000000; stroke-width: 0.8"/>
      </g>
     </g>
     <g id="text_6">
      <!-- 500 -->
      <g transform="translate(613.216223 655.398438) scale(0.1 -0.1)">
       <defs>
        <path id="DejaVuSans-Bold-35" d="M 678 4666 
L 3669 4666 
L 3669 3781 
L 1638 3781 
L 1638 3059 
Q 1775 3097 1914 3117 
Q 2053 3138 2203 3138 
Q 3056 3138 3531 2711 
Q 4006 2284 4006 1522 
Q 4006 766 3489 337 
Q 2972 -91 2053 -91 
Q 1656 -91 1267 -14 
Q 878 63 494 219 
L 494 1166 
Q 875 947 1217 837 
Q 1559 728 1863 728 
Q 2300 728 2551 942 
Q 2803 1156 2803 1522 
Q 2803 1891 2551 2103 
Q 2300 2316 1863 2316 
Q 1603 2316 1309 2248 
Q 1016 2181 678 2041 
L 678 4666 
z
" transform="scale(0.015625)"/>
       </defs>
       <use xlink:href="#DejaVuSans-Bold-35"/>
       <use xlink:href="#DejaVuSans-Bold-30" x="69.580078"/>
       <use xlink:href="#DejaVuSans-Bold-30" x="139.160156"/>
      </g>
     </g>
    </g>
    <g id="text_7">
     <!-- Sample [n] -->
     <g transform="translate(307.520312 676.675) scale(0.2 -0.2)">
      <defs>
       <path id="DejaVuSans-Bold-53" d="M 3834 4519 
L 3834 3531 
Q 3450 3703 3084 3790 
Q 2719 3878 2394 3878 
Q 1963 3878 1756 3759 
Q 1550 3641 1550 3391 
Q 1550 3203 1689 3098 
Q 1828 2994 2194 2919 
L 2706 2816 
Q 3484 2659 3812 2340 
Q 4141 2022 4141 1434 
Q 4141 663 3683 286 
Q 3225 -91 2284 -91 
Q 1841 -91 1394 -6 
Q 947 78 500 244 
L 500 1259 
Q 947 1022 1364 901 
Q 1781 781 2169 781 
Q 2563 781 2772 912 
Q 2981 1044 2981 1288 
Q 2981 1506 2839 1625 
Q 2697 1744 2272 1838 
L 1806 1941 
Q 1106 2091 782 2419 
Q 459 2747 459 3303 
Q 459 4000 909 4375 
Q 1359 4750 2203 4750 
Q 2588 4750 2994 4692 
Q 3400 4634 3834 4519 
z
" transform="scale(0.015625)"/>
       <path id="DejaVuSans-Bold-61" d="M 2106 1575 
Q 1756 1575 1579 1456 
Q 1403 1338 1403 1106 
Q 1403 894 1545 773 
Q 1688 653 1941 653 
Q 2256 653 2472 879 
Q 2688 1106 2688 1447 
L 2688 1575 
L 2106 1575 
z
M 3816 1997 
L 3816 0 
L 2688 0 
L 2688 519 
Q 2463 200 2181 54 
Q 1900 -91 1497 -91 
Q 953 -91 614 226 
Q 275 544 275 1050 
Q 275 1666 698 1953 
Q 1122 2241 2028 2241 
L 2688 2241 
L 2688 2328 
Q 2688 2594 2478 2717 
Q 2269 2841 1825 2841 
Q 1466 2841 1156 2769 
Q 847 2697 581 2553 
L 581 3406 
Q 941 3494 1303 3539 
Q 1666 3584 2028 3584 
Q 2975 3584 3395 3211 
Q 3816 2838 3816 1997 
z
" transform="scale(0.015625)"/>
       <path id="DejaVuSans-Bold-6d" d="M 3781 2919 
Q 3994 3244 4286 3414 
Q 4578 3584 4928 3584 
Q 5531 3584 5847 3212 
Q 6163 2841 6163 2131 
L 6163 0 
L 5038 0 
L 5038 1825 
Q 5041 1866 5042 1909 
Q 5044 1953 5044 2034 
Q 5044 2406 4934 2573 
Q 4825 2741 4581 2741 
Q 4263 2741 4089 2478 
Q 3916 2216 3909 1719 
L 3909 0 
L 2784 0 
L 2784 1825 
Q 2784 2406 2684 2573 
Q 2584 2741 2328 2741 
Q 2006 2741 1831 2477 
Q 1656 2213 1656 1722 
L 1656 0 
L 531 0 
L 531 3500 
L 1656 3500 
L 1656 2988 
Q 1863 3284 2130 3434 
Q 2397 3584 2719 3584 
Q 3081 3584 3359 3409 
Q 3638 3234 3781 2919 
z
" transform="scale(0.015625)"/>
       <path id="DejaVuSans-Bold-70" d="M 1656 506 
L 1656 -1331 
L 538 -1331 
L 538 3500 
L 1656 3500 
L 1656 2988 
Q 1888 3294 2169 3439 
Q 2450 3584 2816 3584 
Q 3463 3584 3878 3070 
Q 4294 2556 4294 1747 
Q 4294 938 3878 423 
Q 3463 -91 2816 -91 
Q 2450 -91 2169 54 
Q 1888 200 1656 506 
z
M 2400 2772 
Q 2041 2772 1848 2508 
Q 1656 2244 1656 1747 
Q 1656 1250 1848 986 
Q 2041 722 2400 722 
Q 2759 722 2948 984 
Q 3138 1247 3138 1747 
Q 3138 2247 2948 2509 
Q 2759 2772 2400 2772 
z
" transform="scale(0.015625)"/>
       <path id="DejaVuSans-Bold-6c" d="M 538 4863 
L 1656 4863 
L 1656 0 
L 538 0 
L 538 4863 
z
" transform="scale(0.015625)"/>
       <path id="DejaVuSans-Bold-65" d="M 4031 1759 
L 4031 1441 
L 1416 1441 
Q 1456 1047 1700 850 
Q 1944 653 2381 653 
Q 2734 653 3104 758 
Q 3475 863 3866 1075 
L 3866 213 
Q 3469 63 3072 -14 
Q 2675 -91 2278 -91 
Q 1328 -91 801 392 
Q 275 875 275 1747 
Q 275 2603 792 3093 
Q 1309 3584 2216 3584 
Q 3041 3584 3536 3087 
Q 4031 2591 4031 1759 
z
M 2881 2131 
Q 2881 2450 2695 2645 
Q 2509 2841 2209 2841 
Q 1884 2841 1681 2658 
Q 1478 2475 1428 2131 
L 2881 2131 
z
" transform="scale(0.015625)"/>
       <path id="DejaVuSans-Bold-20" transform="scale(0.015625)"/>
       <path id="DejaVuSans-Bold-5b" d="M 550 4863 
L 2491 4863 
L 2491 4159 
L 1613 4159 
L 1613 -141 
L 2491 -141 
L 2491 -844 
L 550 -844 
L 550 4863 
z
" transform="scale(0.015625)"/>
       <path id="DejaVuSans-Bold-6e" d="M 4056 2131 
L 4056 0 
L 2931 0 
L 2931 347 
L 2931 1631 
Q 2931 2084 2911 2256 
Q 2891 2428 2841 2509 
Q 2775 2619 2662 2680 
Q 2550 2741 2406 2741 
Q 2056 2741 1856 2470 
Q 1656 2200 1656 1722 
L 1656 0 
L 538 0 
L 538 3500 
L 1656 3500 
L 1656 2988 
Q 1909 3294 2193 3439 
Q 2478 3584 2822 3584 
Q 3428 3584 3742 3212 
Q 4056 2841 4056 2131 
z
" transform="scale(0.015625)"/>
       <path id="DejaVuSans-Bold-5d" d="M 2375 -844 
L 434 -844 
L 434 -141 
L 1313 -141 
L 1313 4159 
L 434 4159 
L 434 4863 
L 2375 4863 
L 2375 -844 
z
" transform="scale(0.015625)"/>
      </defs>
      <use xlink:href="#DejaVuSans-Bold-53"/>
      <use xlink:href="#DejaVuSans-Bold-61" x="72.021484"/>
      <use xlink:href="#DejaVuSans-Bold-6d" x="139.501953"/>
      <use xlink:href="#DejaVuSans-Bold-70" x="243.701172"/>
      <use xlink:href="#DejaVuSans-Bold-6c" x="315.283203"/>
      <use xlink:href="#DejaVuSans-Bold-65" x="349.560547"/>
      <use xlink:href="#DejaVuSans-Bold-20" x="417.382812"/>
      <use xlink:href="#DejaVuSans-Bold-5b" x="452.197266"/>
      <use xlink:href="#DejaVuSans-Bold-6e" x="497.900391"/>
      <use xlink:href="#DejaVuSans-Bold-5d" x="569.091797"/>
     </g>
    </g>
   </g>
   <g id="matplotlib.axis_2">
    <g id="ytick_1">
     <g id="line2d_7">
      <defs>
       <path id="m781112264c" d="M 0 0 
L -3.5 0 
" style="stroke: #000000; stroke-width: 0.8"/>
      </defs>
      <g>
       <use xlink:href="#m781112264c" x="90" y="636.107258" style="stroke: #000000; stroke-width: 0.8"/>
      </g>
     </g>
     <g id="text_8">
      <!-- −1.00 -->
      <g transform="translate(49.948437 639.906477) scale(0.1 -0.1)">
       <defs>
        <path id="DejaVuSans-Bold-2212" d="M 678 2375 
L 4684 2375 
L 4684 1638 
L 678 1638 
L 678 2375 
z
" transform="scale(0.015625)"/>
        <path id="DejaVuSans-Bold-2e" d="M 653 1209 
L 1778 1209 
L 1778 0 
L 653 0 
L 653 1209 
z
" transform="scale(0.015625)"/>
       </defs>
       <use xlink:href="#DejaVuSans-Bold-2212"/>
       <use xlink:href="#DejaVuSans-Bold-31" x="83.789062"/>
       <use xlink:href="#DejaVuSans-Bold-2e" x="153.369141"/>
       <use xlink:href="#DejaVuSans-Bold-30" x="191.357422"/>
       <use xlink:href="#DejaVuSans-Bold-30" x="260.9375"/>
      </g>
     </g>
    </g>
    <g id="ytick_2">
     <g id="line2d_8">
      <g>
       <use xlink:href="#m781112264c" x="90" y="562.353177" style="stroke: #000000; stroke-width: 0.8"/>
      </g>
     </g>
     <g id="text_9">
      <!-- −0.75 -->
      <g transform="translate(49.948437 566.152396) scale(0.1 -0.1)">
       <defs>
        <path id="DejaVuSans-Bold-37" d="M 428 4666 
L 3944 4666 
L 3944 3988 
L 2125 0 
L 953 0 
L 2675 3781 
L 428 3781 
L 428 4666 
z
" transform="scale(0.015625)"/>
       </defs>
       <use xlink:href="#DejaVuSans-Bold-2212"/>
       <use xlink:href="#DejaVuSans-Bold-30" x="83.789062"/>
       <use xlink:href="#DejaVuSans-Bold-2e" x="153.369141"/>
       <use xlink:href="#DejaVuSans-Bold-37" x="191.357422"/>
       <use xlink:href="#DejaVuSans-Bold-35" x="260.9375"/>
      </g>
     </g>
    </g>
    <g id="ytick_3">
     <g id="line2d_9">
      <g>
       <use xlink:href="#m781112264c" x="90" y="488.599096" style="stroke: #000000; stroke-width: 0.8"/>
      </g>
     </g>
     <g id="text_10">
      <!-- −0.50 -->
      <g transform="translate(49.948437 492.398315) scale(0.1 -0.1)">
       <use xlink:href="#DejaVuSans-Bold-2212"/>
       <use xlink:href="#DejaVuSans-Bold-30" x="83.789062"/>
       <use xlink:href="#DejaVuSans-Bold-2e" x="153.369141"/>
       <use xlink:href="#DejaVuSans-Bold-35" x="191.357422"/>
       <use xlink:href="#DejaVuSans-Bold-30" x="260.9375"/>
      </g>
     </g>
    </g>
    <g id="ytick_4">
     <g id="line2d_10">
      <g>
       <use xlink:href="#m781112264c" x="90" y="414.845015" style="stroke: #000000; stroke-width: 0.8"/>
      </g>
     </g>
     <g id="text_11">
      <!-- −0.25 -->
      <g transform="translate(49.948437 418.644234) scale(0.1 -0.1)">
       <use xlink:href="#DejaVuSans-Bold-2212"/>
       <use xlink:href="#DejaVuSans-Bold-30" x="83.789062"/>
       <use xlink:href="#DejaVuSans-Bold-2e" x="153.369141"/>
       <use xlink:href="#DejaVuSans-Bold-32" x="191.357422"/>
       <use xlink:href="#DejaVuSans-Bold-35" x="260.9375"/>
      </g>
     </g>
    </g>
    <g id="ytick_5">
     <g id="line2d_11">
      <g>
       <use xlink:href="#m781112264c" x="90" y="341.090934" style="stroke: #000000; stroke-width: 0.8"/>
      </g>
     </g>
     <g id="text_12">
      <!-- 0.00 -->
      <g transform="translate(58.328125 344.890152) scale(0.1 -0.1)">
       <use xlink:href="#DejaVuSans-Bold-30"/>
       <use xlink:href="#DejaVuSans-Bold-2e" x="69.580078"/>
       <use xlink:href="#DejaVuSans-Bold-30" x="107.568359"/>
       <use xlink:href="#DejaVuSans-Bold-30" x="177.148438"/>
      </g>
     </g>
    </g>
    <g id="ytick_6">
     <g id="line2d_12">
      <g>
       <use xlink:href="#m781112264c" x="90" y="267.336853" style="stroke: #000000; stroke-width: 0.8"/>
      </g>
     </g>
     <g id="text_13">
      <!-- 0.25 -->
      <g transform="translate(58.328125 271.136071) scale(0.1 -0.1)">
       <use xlink:href="#DejaVuSans-Bold-30"/>
       <use xlink:href="#DejaVuSans-Bold-2e" x="69.580078"/>
       <use xlink:href="#DejaVuSans-Bold-32" x="107.568359"/>
       <use xlink:href="#DejaVuSans-Bold-35" x="177.148438"/>
      </g>
     </g>
    </g>
    <g id="ytick_7">
     <g id="line2d_13">
      <g>
       <use xlink:href="#m781112264c" x="90" y="193.582771" style="stroke: #000000; stroke-width: 0.8"/>
      </g>
     </g>
     <g id="text_14">
      <!-- 0.50 -->
      <g transform="translate(58.328125 197.38199) scale(0.1 -0.1)">
       <use xlink:href="#DejaVuSans-Bold-30"/>
       <use xlink:href="#DejaVuSans-Bold-2e" x="69.580078"/>
       <use xlink:href="#DejaVuSans-Bold-35" x="107.568359"/>
       <use xlink:href="#DejaVuSans-Bold-30" x="177.148438"/>
      </g>
     </g>
    </g>
    <g id="ytick_8">
     <g id="line2d_14">
      <g>
       <use xlink:href="#m781112264c" x="90" y="119.82869" style="stroke: #000000; stroke-width: 0.8"/>
      </g>
     </g>
     <g id="text_15">
      <!-- 0.75 -->
      <g transform="translate(58.328125 123.627909) scale(0.1 -0.1)">
       <use xlink:href="#DejaVuSans-Bold-30"/>
       <use xlink:href="#DejaVuSans-Bold-2e" x="69.580078"/>
       <use xlink:href="#DejaVuSans-Bold-37" x="107.568359"/>
       <use xlink:href="#DejaVuSans-Bold-35" x="177.148438"/>
      </g>
     </g>
    </g>
    <g id="text_16">
     <!-- Angle [rad] -->
     <g transform="translate(41.632812 427.285937) rotate(-90) scale(0.2 -0.2)">
      <defs>
       <path id="DejaVuSans-Bold-41" d="M 3419 850 
L 1538 850 
L 1241 0 
L 31 0 
L 1759 4666 
L 3194 4666 
L 4922 0 
L 3713 0 
L 3419 850 
z
M 1838 1716 
L 3116 1716 
L 2478 3572 
L 1838 1716 
z
" transform="scale(0.015625)"/>
       <path id="DejaVuSans-Bold-67" d="M 2919 594 
Q 2688 288 2409 144 
Q 2131 0 1766 0 
Q 1125 0 706 504 
Q 288 1009 288 1791 
Q 288 2575 706 3076 
Q 1125 3578 1766 3578 
Q 2131 3578 2409 3434 
Q 2688 3291 2919 2981 
L 2919 3500 
L 4044 3500 
L 4044 353 
Q 4044 -491 3511 -936 
Q 2978 -1381 1966 -1381 
Q 1638 -1381 1331 -1331 
Q 1025 -1281 716 -1178 
L 716 -306 
Q 1009 -475 1290 -558 
Q 1572 -641 1856 -641 
Q 2406 -641 2662 -400 
Q 2919 -159 2919 353 
L 2919 594 
z
M 2181 2772 
Q 1834 2772 1640 2515 
Q 1447 2259 1447 1791 
Q 1447 1309 1634 1061 
Q 1822 813 2181 813 
Q 2531 813 2725 1069 
Q 2919 1325 2919 1791 
Q 2919 2259 2725 2515 
Q 2531 2772 2181 2772 
z
" transform="scale(0.015625)"/>
       <path id="DejaVuSans-Bold-72" d="M 3138 2547 
Q 2991 2616 2845 2648 
Q 2700 2681 2553 2681 
Q 2122 2681 1889 2404 
Q 1656 2128 1656 1613 
L 1656 0 
L 538 0 
L 538 3500 
L 1656 3500 
L 1656 2925 
Q 1872 3269 2151 3426 
Q 2431 3584 2822 3584 
Q 2878 3584 2943 3579 
Q 3009 3575 3134 3559 
L 3138 2547 
z
" transform="scale(0.015625)"/>
       <path id="DejaVuSans-Bold-64" d="M 2919 2988 
L 2919 4863 
L 4044 4863 
L 4044 0 
L 2919 0 
L 2919 506 
Q 2688 197 2409 53 
Q 2131 -91 1766 -91 
Q 1119 -91 703 423 
Q 288 938 288 1747 
Q 288 2556 703 3070 
Q 1119 3584 1766 3584 
Q 2128 3584 2408 3439 
Q 2688 3294 2919 2988 
z
M 2181 722 
Q 2541 722 2730 984 
Q 2919 1247 2919 1747 
Q 2919 2247 2730 2509 
Q 2541 2772 2181 2772 
Q 1825 2772 1636 2509 
Q 1447 2247 1447 1747 
Q 1447 1247 1636 984 
Q 1825 722 2181 722 
z
" transform="scale(0.015625)"/>
      </defs>
      <use xlink:href="#DejaVuSans-Bold-41"/>
      <use xlink:href="#DejaVuSans-Bold-6e" x="77.392578"/>
      <use xlink:href="#DejaVuSans-Bold-67" x="148.583984"/>
      <use xlink:href="#DejaVuSans-Bold-6c" x="220.166016"/>
      <use xlink:href="#DejaVuSans-Bold-65" x="254.443359"/>
      <use xlink:href="#DejaVuSans-Bold-20" x="322.265625"/>
      <use xlink:href="#DejaVuSans-Bold-5b" x="357.080078"/>
      <use xlink:href="#DejaVuSans-Bold-72" x="402.783203"/>
      <use xlink:href="#DejaVuSans-Bold-61" x="452.099609"/>
      <use xlink:href="#DejaVuSans-Bold-64" x="519.580078"/>
      <use xlink:href="#DejaVuSans-Bold-5d" x="591.162109"/>
     </g>
    </g>
   </g>
   <g id="line2d_15">
    <path d="M 115.363636 149.238962 
L 116.380215 153.873068 
L 117.396794 178.897238 
L 119.429951 243.774716 
L 120.446529 270.652529 
L 121.463108 292.896236 
L 122.479687 306.798552 
L 123.496265 310.505837 
L 124.512844 304.94491 
L 125.529422 297.530341 
L 126.546001 295.676699 
L 127.56258 307.725373 
L 129.595737 353.139608 
L 130.612316 366.115104 
L 131.628894 368.895567 
L 132.645473 368.895567 
L 133.662051 365.188283 
L 134.67863 350.359145 
L 135.695209 324.408154 
L 136.711787 291.969414 
L 137.728366 264.164781 
L 138.744944 251.189285 
L 139.761523 253.042928 
L 140.778102 259.530675 
L 141.79468 260.457496 
L 142.811259 256.750212 
L 143.827837 251.189285 
L 144.844416 252.116106 
L 145.860995 265.091602 
L 146.877573 291.042593 
L 147.894152 328.115438 
L 149.927309 418.943908 
L 150.943888 455.089931 
L 151.960466 469.919069 
L 152.977045 465.284963 
L 153.993624 442.114435 
L 155.010202 405.968412 
L 157.043359 311.432658 
L 158.059938 279.92074 
L 159.076517 266.018423 
L 160.093095 269.725708 
L 161.109674 287.335309 
L 163.142831 340.164113 
L 164.15941 356.846893 
L 165.175988 370.749209 
L 166.192567 389.285632 
L 167.209146 402.261127 
L 168.225724 398.553843 
L 169.242303 379.090599 
L 171.27546 322.554511 
L 172.292039 303.091268 
L 173.308617 287.335309 
L 174.325196 276.213455 
L 175.341774 276.213455 
L 176.358353 289.188951 
L 177.374932 313.2863 
L 178.39151 347.578682 
L 179.408089 386.505168 
L 180.424668 418.017086 
L 181.441246 434.699867 
L 182.457825 433.773045 
L 183.474403 418.943908 
L 184.490982 390.212453 
L 185.507561 350.359145 
L 188.557296 212.262798 
L 189.573875 180.75088 
L 190.590454 155.72671 
L 191.607032 137.190288 
L 192.623611 126.995256 
L 193.640189 134.409824 
L 194.656768 165.921742 
L 195.673347 216.896904 
L 196.689925 275.286634 
L 197.706504 326.261796 
L 198.723083 368.895567 
L 200.75624 441.187614 
L 201.772818 463.431321 
L 202.789397 468.992248 
L 203.805976 457.870394 
L 204.822554 430.992582 
L 205.839133 389.285632 
L 207.87229 284.554846 
L 208.888869 247.482001 
L 209.905447 221.53101 
L 211.938604 178.897238 
L 212.955183 170.555848 
L 213.971762 182.604523 
L 214.98834 213.189619 
L 216.004919 253.042928 
L 217.021498 299.383983 
L 219.054655 409.675696 
L 220.071233 454.16311 
L 221.087812 476.406817 
L 222.104391 485.675028 
L 223.120969 490.309134 
L 224.137548 490.309134 
L 225.154126 486.601849 
L 226.170705 480.114101 
L 228.203862 458.797216 
L 229.220441 438.407151 
L 230.237019 404.11477 
L 231.253598 355.920072 
L 233.286755 244.701537 
L 234.303334 210.409156 
L 235.319913 199.287303 
L 236.336491 210.409156 
L 237.35307 241.921074 
L 238.369648 288.26213 
L 242.435963 515.333304 
L 243.452541 557.040254 
L 244.46912 589.478993 
L 245.485699 608.942237 
L 246.502277 606.161773 
L 247.518856 574.649855 
L 248.535435 520.89423 
L 250.568592 396.700201 
L 251.58517 346.65186 
L 252.601749 308.652195 
L 253.618328 282.701203 
L 254.634906 269.725708 
L 255.651485 273.432992 
L 257.684642 304.018089 
L 259.717799 318.847227 
L 260.734378 334.603186 
L 262.767535 384.651526 
L 263.784114 403.187949 
L 264.800692 408.748875 
L 265.817271 405.041591 
L 266.83385 391.139274 
L 267.850428 365.188283 
L 268.867007 327.188617 
L 270.900164 232.652863 
L 271.916743 193.726376 
L 272.933321 172.40949 
L 273.9499 175.189954 
L 274.966478 200.214124 
L 276.999636 290.115772 
L 278.016214 325.334975 
L 281.06595 394.846558 
L 283.099107 451.382647 
L 285.132265 500.504166 
L 286.148843 519.967409 
L 287.165422 534.796547 
L 288.182 542.211116 
L 289.198579 536.650189 
L 290.215158 508.845556 
L 291.231736 462.5045 
L 292.248315 405.968412 
L 293.264893 355.920072 
L 294.281472 316.066764 
L 295.298051 288.26213 
L 300.380944 177.970417 
L 301.397522 171.482669 
L 302.414101 186.311807 
L 305.463837 261.384318 
L 306.480415 290.115772 
L 307.496994 329.042259 
L 308.513573 373.529673 
L 309.530151 410.602517 
L 310.54673 430.992582 
L 313.596466 463.431321 
L 314.613044 473.626353 
L 315.629623 478.260459 
L 316.646201 468.992248 
L 318.679359 431.919403 
L 319.695937 411.529339 
L 320.712516 393.919737 
L 321.729095 380.017421 
L 322.745673 373.529673 
L 323.762252 372.602852 
L 324.77883 367.041925 
L 325.795409 353.139608 
L 326.811988 333.676365 
L 327.828566 317.920406 
L 328.845145 313.2863 
L 329.861723 321.62769 
L 330.878302 337.383649 
L 331.894881 351.285966 
L 332.911459 351.285966 
L 333.928038 340.164113 
L 334.944617 320.700869 
L 335.961195 304.94491 
L 336.977774 298.457162 
L 337.994352 295.676699 
L 339.010931 291.042593 
L 340.02751 291.042593 
L 341.044088 299.383983 
L 342.060667 316.066764 
L 343.077245 329.96908 
L 344.093824 332.749544 
L 345.110403 326.261796 
L 346.126981 318.847227 
L 347.14356 318.847227 
L 348.160138 326.261796 
L 349.176717 338.31047 
L 350.193296 355.920072 
L 351.209874 376.310136 
L 352.226453 390.212453 
L 353.243032 389.285632 
L 354.25961 374.456494 
L 355.276189 351.285966 
L 356.292767 320.700869 
L 359.342503 204.848229 
L 360.359082 189.09227 
L 361.37566 194.653197 
L 362.392239 206.701872 
L 363.408818 215.043262 
L 364.425396 219.677367 
L 365.441975 232.652863 
L 366.458553 263.23796 
L 367.475132 305.871731 
L 372.558025 548.698864 
L 373.574604 573.723034 
L 374.591182 579.283961 
L 375.607761 574.649855 
L 376.62434 555.186612 
L 377.640918 510.699198 
L 380.690654 321.62769 
L 381.707233 279.92074 
L 384.756968 176.116775 
L 385.773547 149.238962 
L 386.790126 129.775719 
L 387.806704 115.873402 
L 388.823283 115.873402 
L 389.839862 140.897572 
L 390.85644 189.09227 
L 392.889597 318.847227 
L 393.906176 370.749209 
L 394.922755 405.041591 
L 395.939333 420.79755 
L 396.955912 419.870729 
L 397.97249 405.041591 
L 398.989069 378.163778 
L 400.005648 340.164113 
L 402.038805 244.701537 
L 403.055383 197.43366 
L 404.071962 164.0681 
L 405.088541 155.72671 
L 406.105119 171.482669 
L 407.121698 205.775051 
L 410.171434 329.042259 
L 412.204591 427.285298 
L 413.22117 464.358142 
L 414.237748 490.309134 
L 415.254327 509.772377 
L 416.270905 523.674694 
L 417.287484 528.308799 
L 418.304063 514.406483 
L 419.320641 479.18728 
L 420.33722 425.431655 
L 423.386956 228.018757 
L 424.403534 188.165449 
L 425.420113 172.40949 
L 426.436692 171.482669 
L 427.45327 176.116775 
L 428.469849 193.726376 
L 429.486427 226.165115 
L 434.56932 433.773045 
L 435.585899 462.5045 
L 436.602478 468.992248 
L 437.619056 456.016752 
L 438.635635 425.431655 
L 439.652214 380.017421 
L 441.685371 271.57935 
L 442.701949 234.506505 
L 443.718528 215.970083 
L 444.735107 207.628693 
L 445.751685 202.994587 
L 446.768264 202.067766 
L 447.784842 202.994587 
L 449.818 202.994587 
L 450.834578 204.848229 
L 451.851157 215.970083 
L 452.867735 244.701537 
L 453.884314 288.26213 
L 457.950629 500.504166 
L 458.967207 532.942905 
L 459.983786 540.357474 
L 461.000364 525.528336 
L 465.066679 427.285298 
L 466.083257 410.602517 
L 467.099836 398.553843 
L 468.116415 392.992916 
L 469.132993 392.066095 
L 470.149572 394.846558 
L 471.16615 396.700201 
L 472.182729 399.480664 
L 473.199308 400.407485 
L 474.215886 399.480664 
L 475.232465 392.066095 
L 476.249044 373.529673 
L 477.265622 342.017755 
L 478.282201 302.164447 
L 479.298779 267.872065 
L 480.315358 253.042928 
L 481.331937 256.750212 
L 482.348515 264.164781 
L 483.365094 266.945244 
L 485.398251 259.530675 
L 486.41483 262.311139 
L 487.431408 276.213455 
L 488.447987 298.457162 
L 489.464565 329.042259 
L 490.481144 364.261462 
L 491.497723 392.992916 
L 492.514301 403.187949 
L 493.53088 394.846558 
L 494.547459 372.602852 
L 495.564037 340.164113 
L 496.580616 312.359479 
L 497.597194 294.749878 
L 498.613773 292.896236 
L 499.630352 305.871731 
L 501.663509 351.285966 
L 502.680087 366.115104 
L 503.696666 370.749209 
L 504.713245 366.115104 
L 505.729823 349.432324 
L 506.746402 324.408154 
L 507.762981 290.115772 
L 508.779559 262.311139 
L 509.796138 249.335643 
L 510.812716 254.89657 
L 511.829295 268.798887 
L 512.845874 279.92074 
L 513.862452 282.701203 
L 514.879031 280.847561 
L 515.895609 277.140277 
L 516.912188 272.506171 
L 517.928767 265.091602 
L 518.945345 264.164781 
L 519.961924 278.993919 
L 521.995081 334.603186 
L 526.061396 415.236623 
L 527.077974 430.992582 
L 528.094553 435.626688 
L 529.111131 427.285298 
L 530.12771 405.041591 
L 532.160867 338.31047 
L 536.227182 236.360147 
L 537.24376 216.896904 
L 538.260339 214.116441 
L 539.276917 228.945578 
L 540.293496 261.384318 
L 541.310075 304.018089 
L 543.343232 406.895233 
L 544.359811 461.577679 
L 545.376389 504.21145 
L 546.392968 524.601515 
L 547.409546 518.113767 
L 549.442704 477.333638 
L 550.459282 454.16311 
L 552.492439 403.187949 
L 553.509018 386.505168 
L 554.525597 378.163778 
L 555.542175 367.968746 
L 556.558754 346.65186 
L 558.591911 285.481667 
L 559.60849 270.652529 
L 560.625068 271.57935 
L 561.641647 289.188951 
L 562.658226 318.847227 
L 563.674804 358.700535 
L 567.741119 533.869726 
L 568.757697 563.528002 
L 569.774276 571.869392 
L 570.790854 554.259791 
L 571.807433 521.821052 
L 574.857169 398.553843 
L 576.890326 308.652195 
L 577.906905 276.213455 
L 578.923483 260.457496 
L 579.940062 260.457496 
L 580.956641 269.725708 
L 581.973219 287.335309 
L 584.006376 342.017755 
L 585.022955 356.846893 
L 586.039534 356.846893 
L 587.056112 345.725039 
L 588.072691 328.115438 
L 589.089269 304.94491 
L 590.105848 274.359813 
L 592.139005 203.921408 
L 593.155584 173.336311 
L 594.172163 150.165783 
L 595.188741 133.483003 
L 596.20532 123.287971 
L 597.221898 120.507508 
L 598.238477 123.287971 
L 599.255056 134.409824 
L 600.271634 158.507174 
L 601.288213 202.067766 
L 602.304791 260.457496 
L 604.337949 401.334306 
L 605.354527 462.5045 
L 606.371106 502.357808 
L 607.387684 518.113767 
L 608.404263 510.699198 
L 609.420842 489.382312 
L 610.43742 457.870394 
L 612.470578 380.944242 
L 613.487156 345.725039 
L 614.503735 320.700869 
L 615.520313 299.383983 
L 616.536892 288.26213 
L 617.553471 289.188951 
L 618.570049 304.018089 
L 619.586628 330.895901 
L 622.636364 432.846224 
L 622.636364 432.846224 
" clip-path="url(#pa4330ddcec)" style="fill: none; stroke: #1f77b4; stroke-width: 2; stroke-linecap: square"/>
   </g>
   <g id="line2d_16">
    <path d="M 115.363636 148.692314 
L 116.380215 153.229967 
L 117.396794 177.983957 
L 119.429951 240.479347 
L 120.446529 266.953356 
L 121.463108 288.084536 
L 122.479687 302.155118 
L 123.496265 307.118225 
L 124.512844 303.657347 
L 125.529422 296.223038 
L 126.546001 295.241437 
L 127.56258 307.428832 
L 129.595737 353.741587 
L 130.612316 366.754233 
L 131.628894 369.063378 
L 132.645473 369.113584 
L 133.662051 364.741442 
L 134.67863 348.639282 
L 135.695209 321.932723 
L 136.711787 288.52392 
L 137.728366 259.709144 
L 138.744944 246.043447 
L 139.761523 247.962705 
L 140.778102 254.516069 
L 141.79468 256.936403 
L 142.811259 254.223068 
L 143.827837 249.158968 
L 144.844416 250.105195 
L 145.860995 263.598694 
L 146.877573 289.929419 
L 147.894152 327.031765 
L 149.927309 418.953856 
L 150.943888 455.177779 
L 151.960466 470.479975 
L 152.977045 464.682781 
L 153.993624 441.658389 
L 155.010202 404.14729 
L 157.043359 308.529286 
L 158.059938 275.946507 
L 159.076517 261.654574 
L 160.093095 264.904041 
L 161.109674 282.076997 
L 163.142831 335.095988 
L 164.15941 352.539463 
L 165.175988 367.74198 
L 166.192567 387.932712 
L 167.209146 401.799455 
L 168.225724 399.450892 
L 169.242303 380.834266 
L 171.27546 324.982417 
L 172.292039 304.788865 
L 173.308617 287.362329 
L 174.325196 274.58237 
L 175.341774 272.569183 
L 176.358353 284.008217 
L 177.374932 308.264314 
L 178.39151 342.036952 
L 179.408089 381.196189 
L 180.424668 412.690942 
L 181.441246 429.497073 
L 182.457825 429.832635 
L 183.474403 414.514424 
L 184.490982 386.684742 
L 185.507561 347.862992 
L 188.557296 210.10501 
L 189.573875 178.953341 
L 190.590454 154.053239 
L 191.607032 134.637267 
L 192.623611 123.119188 
L 193.640189 129.247308 
L 194.656768 159.009075 
L 195.673347 208.654984 
L 197.706504 317.504658 
L 199.739661 398.768744 
L 200.75624 435.402308 
L 201.772818 460.423011 
L 202.789397 468.042341 
L 203.805976 458.704918 
L 204.822554 433.70639 
L 205.839133 393.363498 
L 207.87229 288.805832 
L 208.888869 251.151335 
L 209.905447 223.507749 
L 211.938604 177.633414 
L 212.955183 166.997633 
L 213.971762 177.056278 
L 214.98834 205.199791 
L 216.004919 242.362645 
L 217.021498 287.600012 
L 219.054655 398.010933 
L 220.071233 443.33052 
L 221.087812 468.211984 
L 222.104391 479.701907 
L 223.120969 487.027558 
L 224.137548 490.733373 
L 225.154126 489.48217 
L 226.170705 483.231579 
L 227.187284 473.386749 
L 228.203862 460.189926 
L 229.220441 438.487732 
L 230.237019 402.465918 
L 231.253598 352.844709 
L 233.286755 238.375676 
L 234.303334 202.178834 
L 235.319913 190.849723 
L 236.336491 202.163303 
L 237.35307 233.410493 
L 238.369648 280.279489 
L 240.402806 400.638108 
L 241.419384 461.196969 
L 242.435963 514.877352 
L 243.452541 560.116312 
L 244.46912 594.815024 
L 245.485699 615.6 
L 246.502277 614.229866 
L 247.518856 583.430214 
L 248.535435 529.333781 
L 250.568592 402.608665 
L 251.58517 351.571942 
L 252.601749 311.273633 
L 253.618328 281.829865 
L 254.634906 266.52398 
L 255.651485 267.191484 
L 256.668063 280.147222 
L 257.684642 294.569396 
L 258.701221 302.524819 
L 259.717799 311.920032 
L 260.734378 330.487835 
L 262.767535 386.139771 
L 263.784114 406.370895 
L 264.800692 414.006816 
L 265.817271 410.642513 
L 266.83385 396.811229 
L 267.850428 369.023527 
L 268.867007 329.317086 
L 270.900164 231.458051 
L 271.916743 189.919345 
L 272.933321 166.87369 
L 273.9499 167.640657 
L 274.966478 192.365962 
L 278.016214 315.105582 
L 280.049371 361.735095 
L 282.082529 420.334456 
L 284.115686 478.684091 
L 285.132265 503.275618 
L 286.148843 524.378083 
L 287.165422 538.509439 
L 288.182 545.859823 
L 289.198579 538.547331 
L 290.215158 510.802746 
L 291.231736 462.80066 
L 293.264893 353.334939 
L 294.281472 312.385972 
L 295.298051 283.450948 
L 300.380944 171.169757 
L 301.397522 164.685091 
L 302.414101 179.515032 
L 305.463837 256.592975 
L 306.480415 286.385486 
L 307.496994 326.220681 
L 308.513573 372.118631 
L 309.530151 410.409119 
L 310.54673 432.17691 
L 313.596466 467.994537 
L 314.613044 478.820214 
L 315.629623 483.232784 
L 316.646201 474.697523 
L 317.66278 455.736724 
L 320.712516 391.371844 
L 321.729095 375.139603 
L 322.745673 365.699635 
L 323.762252 360.576451 
L 324.77883 352.068952 
L 325.795409 335.126199 
L 326.811988 314.289221 
L 327.828566 298.283335 
L 328.845145 293.953756 
L 329.861723 303.112333 
L 331.894881 339.078498 
L 332.911459 344.127175 
L 333.928038 336.579289 
L 334.944617 321.384321 
L 335.961195 308.997249 
L 336.977774 304.647351 
L 337.994352 301.345828 
L 339.010931 295.265289 
L 340.02751 292.749193 
L 341.044088 299.78676 
L 342.060667 314.844323 
L 343.077245 327.919508 
L 344.093824 330.67041 
L 346.126981 314.735267 
L 347.14356 313.815812 
L 348.160138 319.793985 
L 349.176717 331.438869 
L 350.193296 349.410596 
L 351.209874 371.694561 
L 352.226453 387.797683 
L 353.243032 388.477928 
L 354.25961 374.799241 
L 355.276189 352.80582 
L 356.292767 323.500998 
L 357.309346 285.901261 
L 358.325925 242.675604 
L 359.342503 205.898925 
L 360.359082 189.712283 
L 361.37566 194.541889 
L 362.392239 206.022332 
L 363.408818 214.298415 
L 364.425396 219.412982 
L 365.441975 233.789407 
L 366.458553 264.254185 
L 367.475132 308.430608 
L 371.541447 508.128798 
L 372.558025 550.453743 
L 373.574604 573.107672 
L 374.591182 576.078412 
L 375.607761 569.068315 
L 376.62434 547.103687 
L 377.640918 501.164516 
L 380.690654 311.169099 
L 381.707233 271.143225 
L 383.74039 202.948324 
L 384.756968 172.592173 
L 385.773547 148.537797 
L 386.790126 130.903142 
L 387.806704 118.739119 
L 388.823283 120.758512 
L 389.839862 146.082266 
L 390.85644 194.549321 
L 392.889597 323.09186 
L 393.906176 373.314269 
L 394.922755 405.233296 
L 395.939333 418.402807 
L 396.955912 415.020074 
L 397.97249 398.339579 
L 398.989069 369.797086 
L 400.005648 330.887622 
L 403.055383 188.186968 
L 404.071962 156.002079 
L 405.088541 149.551161 
L 406.105119 167.516501 
L 407.121698 202.854922 
L 410.171434 331.587054 
L 412.204591 431.167969 
L 413.22117 469.622787 
L 414.237748 494.858186 
L 415.254327 513.478894 
L 416.270905 526.107342 
L 417.287484 529.436519 
L 418.304063 515.355575 
L 419.320641 479.073755 
L 420.33722 425.572503 
L 423.386956 224.171528 
L 424.403534 183.384071 
L 425.420113 166.435448 
L 426.436692 165.143233 
L 427.45327 170.897054 
L 428.469849 188.946833 
L 429.486427 223.034832 
L 434.56932 436.424237 
L 435.585899 465.511336 
L 436.602478 472.553806 
L 437.619056 458.053023 
L 438.635635 427.222953 
L 439.652214 380.943916 
L 441.685371 269.276585 
L 442.701949 231.106613 
L 443.718528 210.98018 
L 444.735107 201.472473 
L 445.751685 195.450831 
L 446.768264 192.306378 
L 447.784842 191.782203 
L 448.801421 192.837382 
L 449.818 194.442146 
L 450.834578 198.207561 
L 451.851157 213.472667 
L 452.867735 245.761946 
L 453.884314 292.311276 
L 457.950629 509.769143 
L 458.967207 541.33706 
L 459.983786 548.262924 
L 461.000364 530.950669 
L 465.066679 422.91722 
L 466.083257 402.906873 
L 467.099836 388.989217 
L 468.116415 380.809727 
L 469.132993 378.056853 
L 470.149572 378.946259 
L 471.16615 382.582111 
L 473.199308 393.240196 
L 474.215886 397.18648 
L 475.232465 393.463768 
L 476.249044 376.48932 
L 477.265622 346.655009 
L 478.282201 308.049776 
L 479.298779 274.736585 
L 480.315358 259.199722 
L 481.331937 261.560658 
L 482.348515 268.901042 
L 483.365094 270.474848 
L 484.381672 266.220438 
L 485.398251 260.527811 
L 486.41483 261.930894 
L 487.431408 273.815116 
L 488.447987 294.700203 
L 489.464565 324.091063 
L 490.481144 359.355882 
L 491.497723 387.892524 
L 492.514301 398.358078 
L 493.53088 389.972452 
L 494.547459 367.348305 
L 496.580616 308.358524 
L 497.597194 291.614429 
L 498.613773 290.24801 
L 499.630352 303.015628 
L 501.663509 349.72971 
L 502.680087 365.316198 
L 503.696666 371.84956 
L 504.713245 367.737698 
L 505.729823 352.019712 
L 506.746402 325.506429 
L 507.762981 291.070222 
L 508.779559 261.5274 
L 509.796138 248.301296 
L 510.812716 252.742266 
L 511.829295 266.340177 
L 512.845874 276.688778 
L 513.862452 280.440925 
L 514.879031 279.495259 
L 515.895609 276.368406 
L 516.912188 269.994363 
L 517.928767 260.570107 
L 518.945345 258.25195 
L 519.961924 271.702573 
L 521.995081 327.123551 
L 526.061396 413.174482 
L 527.077974 430.420518 
L 528.094553 437.302802 
L 529.111131 429.744635 
L 530.12771 406.906741 
L 532.160867 340.103905 
L 536.227182 233.173718 
L 537.24376 211.291593 
L 538.260339 206.537483 
L 539.276917 221.149089 
L 540.293496 252.336588 
L 541.310075 295.462023 
L 543.343232 399.584394 
L 544.359811 455.545877 
L 545.376389 500.388723 
L 546.392968 522.522365 
L 547.409546 517.499774 
L 549.442704 477.725733 
L 550.459282 455.917183 
L 552.492439 404.893127 
L 553.509018 387.320476 
L 554.525597 377.360756 
L 555.542175 364.693459 
L 556.558754 340.27064 
L 558.591911 276.01742 
L 559.60849 259.475477 
L 560.625068 260.689644 
L 561.641647 278.557639 
L 562.658226 310.116347 
L 563.674804 351.217751 
L 567.741119 533.647749 
L 568.757697 564.348386 
L 569.774276 571.613623 
L 570.790854 554.207808 
L 571.807433 521.5019 
L 574.857169 396.318285 
L 576.890326 306.544009 
L 577.906905 274.299739 
L 578.923483 258.118572 
L 579.940062 257.729211 
L 580.956641 267.786552 
L 581.973219 286.372745 
L 584.006376 342.458808 
L 585.022955 357.977603 
L 586.039534 358.69458 
L 587.056112 347.789677 
L 588.072691 329.722193 
L 589.089269 305.176334 
L 590.105848 273.253691 
L 592.139005 199.970456 
L 593.155584 168.580383 
L 594.172163 143.961955 
L 595.188741 126.324342 
L 596.20532 116.013147 
L 597.221898 111.6 
L 598.238477 113.694981 
L 599.255056 123.718509 
L 600.271634 148.422064 
L 601.288213 192.278492 
L 602.304791 251.866398 
L 605.354527 460.092204 
L 606.371106 501.82334 
L 607.387684 519.26718 
L 608.404263 512.744983 
L 609.420842 492.664371 
L 610.43742 461.619414 
L 612.470578 384.008828 
L 613.487156 350.201567 
L 614.503735 321.848429 
L 615.520313 299.020662 
L 616.536892 285.354177 
L 617.553471 284.334636 
L 618.570049 297.310721 
L 619.586628 322.219635 
L 622.636364 424.131543 
L 622.636364 424.131543 
" clip-path="url(#pa4330ddcec)" style="fill: none; stroke-dasharray: 7.4,3.2; stroke-dashoffset: 0; stroke: #ff7f0e; stroke-width: 2"/>
   </g>
   <g id="patch_3">
    <path d="M 90 640.8 
L 90 86.4 
" style="fill: none; stroke: #000000; stroke-width: 0.8; stroke-linejoin: miter; stroke-linecap: square"/>
   </g>
   <g id="patch_4">
    <path d="M 648 640.8 
L 648 86.4 
" style="fill: none; stroke: #000000; stroke-width: 0.8; stroke-linejoin: miter; stroke-linecap: square"/>
   </g>
   <g id="patch_5">
    <path d="M 90 640.8 
L 648 640.8 
" style="fill: none; stroke: #000000; stroke-width: 0.8; stroke-linejoin: miter; stroke-linecap: square"/>
   </g>
   <g id="patch_6">
    <path d="M 90 86.4 
L 648 86.4 
" style="fill: none; stroke: #000000; stroke-width: 0.8; stroke-linejoin: miter; stroke-linecap: square"/>
   </g>
   <g id="legend_1">
    <g id="patch_7">
     <path d="M 97 635.8 
L 193.278125 635.8 
Q 195.278125 635.8 195.278125 633.8 
L 195.278125 605.2875 
Q 195.278125 603.2875 193.278125 603.2875 
L 97 603.2875 
Q 95 603.2875 95 605.2875 
L 95 633.8 
Q 95 635.8 97 635.8 
z
" style="fill: #ffffff; opacity: 0.8; stroke: #cccccc; stroke-linejoin: miter"/>
    </g>
    <g id="line2d_17">
     <path d="M 99 611.385937 
L 109 611.385937 
L 119 611.385937 
" style="fill: none; stroke: #1f77b4; stroke-width: 2; stroke-linecap: square"/>
    </g>
    <g id="text_17">
     <!-- True y -->
     <g transform="translate(127 614.885937) scale(0.1 -0.1)">
      <defs>
       <path id="DejaVuSans-Bold-54" d="M 31 4666 
L 4331 4666 
L 4331 3756 
L 2784 3756 
L 2784 0 
L 1581 0 
L 1581 3756 
L 31 3756 
L 31 4666 
z
" transform="scale(0.015625)"/>
       <path id="DejaVuSans-Bold-75" d="M 500 1363 
L 500 3500 
L 1625 3500 
L 1625 3150 
Q 1625 2866 1622 2436 
Q 1619 2006 1619 1863 
Q 1619 1441 1641 1255 
Q 1663 1069 1716 984 
Q 1784 875 1895 815 
Q 2006 756 2150 756 
Q 2500 756 2700 1025 
Q 2900 1294 2900 1772 
L 2900 3500 
L 4019 3500 
L 4019 0 
L 2900 0 
L 2900 506 
Q 2647 200 2364 54 
Q 2081 -91 1741 -91 
Q 1134 -91 817 281 
Q 500 653 500 1363 
z
" transform="scale(0.015625)"/>
       <path id="DejaVuSans-Bold-79" d="M 78 3500 
L 1197 3500 
L 2138 1125 
L 2938 3500 
L 4056 3500 
L 2584 -331 
Q 2363 -916 2067 -1148 
Q 1772 -1381 1288 -1381 
L 641 -1381 
L 641 -647 
L 991 -647 
Q 1275 -647 1404 -556 
Q 1534 -466 1606 -231 
L 1638 -134 
L 78 3500 
z
" transform="scale(0.015625)"/>
      </defs>
      <use xlink:href="#DejaVuSans-Bold-54"/>
      <use xlink:href="#DejaVuSans-Bold-72" x="57.212891"/>
      <use xlink:href="#DejaVuSans-Bold-75" x="106.529297"/>
      <use xlink:href="#DejaVuSans-Bold-65" x="177.720703"/>
      <use xlink:href="#DejaVuSans-Bold-20" x="245.542969"/>
      <use xlink:href="#DejaVuSans-Bold-79" x="280.357422"/>
     </g>
    </g>
    <g id="line2d_18">
     <path d="M 99 626.142187 
L 109 626.142187 
L 119 626.142187 
" style="fill: none; stroke-dasharray: 7.4,3.2; stroke-dashoffset: 0; stroke: #ff7f0e; stroke-width: 2"/>
    </g>
    <g id="text_18">
     <!-- Predicted y -->
     <g transform="translate(127 629.642187) scale(0.1 -0.1)">
      <defs>
       <path id="DejaVuSans-Bold-50" d="M 588 4666 
L 2584 4666 
Q 3475 4666 3951 4270 
Q 4428 3875 4428 3144 
Q 4428 2409 3951 2014 
Q 3475 1619 2584 1619 
L 1791 1619 
L 1791 0 
L 588 0 
L 588 4666 
z
M 1791 3794 
L 1791 2491 
L 2456 2491 
Q 2806 2491 2997 2661 
Q 3188 2831 3188 3144 
Q 3188 3456 2997 3625 
Q 2806 3794 2456 3794 
L 1791 3794 
z
" transform="scale(0.015625)"/>
       <path id="DejaVuSans-Bold-69" d="M 538 3500 
L 1656 3500 
L 1656 0 
L 538 0 
L 538 3500 
z
M 538 4863 
L 1656 4863 
L 1656 3950 
L 538 3950 
L 538 4863 
z
" transform="scale(0.015625)"/>
       <path id="DejaVuSans-Bold-63" d="M 3366 3391 
L 3366 2478 
Q 3138 2634 2908 2709 
Q 2678 2784 2431 2784 
Q 1963 2784 1702 2511 
Q 1441 2238 1441 1747 
Q 1441 1256 1702 982 
Q 1963 709 2431 709 
Q 2694 709 2930 787 
Q 3166 866 3366 1019 
L 3366 103 
Q 3103 6 2833 -42 
Q 2563 -91 2291 -91 
Q 1344 -91 809 395 
Q 275 881 275 1747 
Q 275 2613 809 3098 
Q 1344 3584 2291 3584 
Q 2566 3584 2833 3536 
Q 3100 3488 3366 3391 
z
" transform="scale(0.015625)"/>
       <path id="DejaVuSans-Bold-74" d="M 1759 4494 
L 1759 3500 
L 2913 3500 
L 2913 2700 
L 1759 2700 
L 1759 1216 
Q 1759 972 1856 886 
Q 1953 800 2241 800 
L 2816 800 
L 2816 0 
L 1856 0 
Q 1194 0 917 276 
Q 641 553 641 1216 
L 641 2700 
L 84 2700 
L 84 3500 
L 641 3500 
L 641 4494 
L 1759 4494 
z
" transform="scale(0.015625)"/>
      </defs>
      <use xlink:href="#DejaVuSans-Bold-50"/>
      <use xlink:href="#DejaVuSans-Bold-72" x="73.291016"/>
      <use xlink:href="#DejaVuSans-Bold-65" x="122.607422"/>
      <use xlink:href="#DejaVuSans-Bold-64" x="190.429688"/>
      <use xlink:href="#DejaVuSans-Bold-69" x="262.011719"/>
      <use xlink:href="#DejaVuSans-Bold-63" x="296.289062"/>
      <use xlink:href="#DejaVuSans-Bold-74" x="355.566406"/>
      <use xlink:href="#DejaVuSans-Bold-65" x="403.369141"/>
      <use xlink:href="#DejaVuSans-Bold-64" x="471.191406"/>
      <use xlink:href="#DejaVuSans-Bold-20" x="542.773438"/>
      <use xlink:href="#DejaVuSans-Bold-79" x="577.587891"/>
     </g>
    </g>
   </g>
  </g>
 </g>
 <defs>
  <clipPath id="pa4330ddcec">
   <rect x="90" y="86.4" width="558" height="554.4"/>
  </clipPath>
 </defs>
</svg>
